<?xml version="1.0" standalone="no"?>
<!DOCTYPE svg PUBLIC "-//W3C//DTD SVG 20010904//EN"
 "http://www.w3.org/TR/2001/REC-SVG-20010904/DTD/svg10.dtd">
<svg version="1.0" xmlns="http://www.w3.org/2000/svg"
 width="64.000000pt" height="64.000000pt" viewBox="0 0 64.000000 64.000000"
 preserveAspectRatio="xMidYMid meet">

<g transform="translate(0.000000,64.000000) scale(0.100000,-0.100000)"
fill="#000000" stroke="none">
<path d="M288 552 c-47 -48 -135 -112 -155 -112 -19 0 -16 -11 12 -53 l26 -37
57 36 c31 20 68 46 81 59 l24 24 42 -37 c23 -20 60 -47 81 -59 l39 -21 27 38
27 39 -54 30 c-29 17 -78 54 -108 84 l-55 54 -44 -45z"/>
<path d="M284 391 c-2 -2 -4 -23 -4 -45 0 -38 -6 -48 -60 -101 -33 -33 -60
-62 -60 -66 0 -9 165 -149 175 -149 9 0 175 143 175 151 0 4 -29 32 -65 64
-61 53 -65 59 -65 100 l0 43 -46 4 c-25 2 -47 1 -50 -1z m77 -225 l-24 -25
-27 22 -28 22 26 28 26 27 25 -25 25 -24 -23 -25z"/>
</g>
</svg>
